<svg width="30" height="32" viewBox="0 0 31 28" fill="none" xmlns="http://www.w3.org/2000/svg">
<path fill-rule="evenodd" clip-rule="evenodd" d="M11.9121 24.0574C11.9121 23.339 12.4692 22.7566 13.1563 22.7566H28.0872C28.7743 22.7566 29.3314 23.339 29.3314 24.0574C29.3314 24.7758 28.7743 25.3582 28.0872 25.3582H13.1563C12.4692 25.3582 11.9121 24.7758 11.9121 24.0574Z" fill="black"/>
<path fill-rule="evenodd" clip-rule="evenodd" d="M11.9121 5.84645C11.9121 5.12804 12.4692 4.54565 13.1563 4.54565H28.0872C28.7743 4.54565 29.3314 5.12804 29.3314 5.84645C29.3314 6.56485 28.7743 7.14724 28.0872 7.14724H13.1563C12.4692 7.14724 11.9121 6.56485 11.9121 5.84645Z" fill="black"/>
<path d="M3.20264 21.4558H8.17958V26.659H3.20264V21.4558Z" fill="black"/>
<path d="M3.20264 12.3503H8.17958V17.5535H3.20264V12.3503Z" fill="black"/>
<path d="M3.20264 3.24463H8.17958V8.44779H3.20264V3.24463Z" fill="black"/>
<path d="M0.713379 0.594482H30.575V25.3704H0.713379V0.594482Z" fill="white" fill-opacity="0.01"/>
<path fill-rule="evenodd" clip-rule="evenodd" d="M11.9121 14.8373C11.9121 14.1246 12.4692 13.5469 13.1563 13.5469H28.0872C28.7743 13.5469 29.3314 14.1246 29.3314 14.8373C29.3314 15.55 28.7743 16.1277 28.0872 16.1277H13.1563C12.4692 16.1277 11.9121 15.55 11.9121 14.8373Z" fill="black"/>
<path fill-rule="evenodd" clip-rule="evenodd" d="M1.95801 21.2894C1.95801 20.5768 2.51507 19.999 3.20224 19.999H8.17918C8.86635 19.999 9.42342 20.5768 9.42342 21.2894V26.4511C9.42342 27.1638 8.86635 27.7415 8.17918 27.7415H3.20224C2.51507 27.7415 1.95801 27.1638 1.95801 26.4511V21.2894ZM4.44648 22.5798V25.1607H6.93495V22.5798H4.44648Z" fill="black"/>
<path fill-rule="evenodd" clip-rule="evenodd" d="M1.95801 12.2565C1.95801 11.5438 2.51507 10.9661 3.20224 10.9661H8.17918C8.86635 10.9661 9.42342 11.5438 9.42342 12.2565V17.4181C9.42342 18.1308 8.86635 18.7085 8.17918 18.7085H3.20224C2.51507 18.7085 1.95801 18.1308 1.95801 17.4181V12.2565ZM4.44648 13.5469V16.1277H6.93495V13.5469H4.44648Z" fill="black"/>
<path fill-rule="evenodd" clip-rule="evenodd" d="M1.95801 3.22352C1.95801 2.51084 2.51507 1.93311 3.20224 1.93311H8.17918C8.86635 1.93311 9.42342 2.51084 9.42342 3.22352V8.38516C9.42342 9.09783 8.86635 9.67557 8.17918 9.67557H3.20224C2.51507 9.67557 1.95801 9.09783 1.95801 8.38516V3.22352ZM4.44648 4.51393V7.09475H6.93495V4.51393H4.44648Z" fill="black"/>
</svg>
