<svg width="24" height="30" viewBox="0 0 23 25" fill="none" xmlns="http://www.w3.org/2000/svg">
<path d="M21.5789 4.53626H20.4058V3.19979C20.4058 2.84534 20.2822 2.5054 20.0623 2.25477C19.8423 2.00413 19.5439 1.86332 19.2328 1.86332C18.9217 1.86332 18.6233 2.00413 18.4033 2.25477C18.1834 2.5054 18.0598 2.84534 18.0598 3.19979V4.53626H16.8867C16.5756 4.53626 16.2773 4.67706 16.0573 4.9277C15.8373 5.17834 15.7137 5.51827 15.7137 5.87273C15.7137 6.22718 15.8373 6.56711 16.0573 6.81775C16.2773 7.06839 16.5756 7.20919 16.8867 7.20919H18.0598V8.54566C18.0598 8.90011 18.1834 9.24005 18.4033 9.49068C18.6233 9.74132 18.9217 9.88213 19.2328 9.88213C19.5439 9.88213 19.8423 9.74132 20.0623 9.49068C20.2822 9.24005 20.4058 8.90011 20.4058 8.54566V7.20919H21.5789C21.89 7.20919 22.1883 7.06839 22.4083 6.81775C22.6283 6.56711 22.7519 6.22718 22.7519 5.87273C22.7519 5.51827 22.6283 5.17834 22.4083 4.9277C22.1883 4.67706 21.89 4.53626 21.5789 4.53626ZM8.67555 11.2186C9.60356 11.2186 10.5107 10.9051 11.2823 10.3177C12.054 9.73024 12.6554 8.89533 13.0105 7.9185C13.3656 6.94167 13.4585 5.8668 13.2775 4.8298C13.0965 3.7928 12.6496 2.84026 11.9934 2.09263C11.3372 1.34499 10.5011 0.835849 9.59093 0.629577C8.68075 0.423306 7.73733 0.529172 6.87996 0.933788C6.02258 1.3384 5.28978 2.0236 4.7742 2.90272C4.25863 3.78184 3.98344 4.81541 3.98344 5.87273C3.98344 7.29054 4.47778 8.65028 5.35773 9.65283C6.23767 10.6554 7.43112 11.2186 8.67555 11.2186ZM15.7137 24.5833C16.0248 24.5833 16.3232 24.4425 16.5432 24.1918C16.7632 23.9412 16.8867 23.6012 16.8867 23.2468C16.8867 20.7656 16.0216 18.3861 14.4817 16.6316C12.9418 14.8772 10.8533 13.8915 8.67555 13.8915C6.4978 13.8915 4.40926 14.8772 2.86936 16.6316C1.32946 18.3861 0.464356 20.7656 0.464355 23.2468C0.464355 23.6012 0.587942 23.9412 0.807927 24.1918C1.02791 24.4425 1.32628 24.5833 1.63738 24.5833" fill="black"/>
</svg>
